
TiTLE: The.Collection.2012.RC.BRRip.AC3.5.1.XviD-DEYA
 
http://www.imdb.com/title/tt1748227/

General
Complete name : C:UsersBakerDesktopThe.Collection.2012.RC.BRRip.AC3.5.1.XviD-DEYA
Format : AVI
Format/Info : Audio Video Interleave
File size : 1.47 GiB
Duration : 1h 21mn
Overall bit rate : 2 581 Kbps

Video
ID : 0
Format : MPEG-4 Visual
Format profile : Advanced Simple@L5
Format settings, BVOP : 2
Format settings, QPel : No
Format settings, GMC : No warppoints
Format settings, Matrix : Default (H.263)
Muxing mode : Packed bitstream
Codec ID : XVID
Codec ID/Hint : XviD
Duration : 1h 21mn
Bit rate : 2 190 Kbps
Width : 720 pixels
Height : 304 pixels
Display aspect ratio : 2.35:1
Frame rate : 24.000 fps
Color space : YUV
Chroma subsampling : 4:2:0
Bit depth : 8 bits
Scan type : Progressive
Compression mode : Lossy
Bits/(Pixel*Frame) : 0.417
Stream size : 1.25 GiB (85%)
Writing library : XviD 64

Audio
ID : 1
Format : AC-3
Format/Info : Audio Coding 3
Mode extension : CM (complete main)
Format settings, Endianness : Big
Codec ID : 2000
Duration : 1h 21mn
Bit rate mode : Constant
Bit rate : 384 Kbps
Channel(s) : 6 channels
Channel positions : Front: L C R, Side: L R, LFE
Sampling rate : 48.0 KHz
Bit depth : 16 bits
Compression mode : Lossy
Stream size : 224 MiB (15%)
Alignment : Aligned on interleaves
Interleave, duration : 64 ms (1.54 video frames)
Interleave, preload duration : 192 ms
Title : K0llekci0Her.track_3

SOURCE: Ruskies 720p

NOTES: Tweaked Enjoy ;)
 
http://img255.imageshack.us/img255/4022/81806100.png
 
http://img33.imageshack.us/img33/6493/62494801.png
 
http://img843.imageshack.us/img843/7300/10692213.png
 
http://img845.imageshack.us/img845/2879/12974878.png
 
http://img534.imageshack.us/img534/4900/50791074.png

GreeTz: OURSELVES & ET ;)